<?xml version="1.0" encoding="UTF-8"?>
<!DOCTYPE svg PUBLIC "-//W3C//DTD SVG 1.1//EN" "http://www.w3.org/Graphics/SVG/1.1/DTD/svg11.dtd">
<svg xmlns="http://www.w3.org/2000/svg" version="1.1" width="1273px" height="1273px" style="shape-rendering:geometricPrecision; text-rendering:geometricPrecision; image-rendering:optimizeQuality; fill-rule:evenodd; clip-rule:evenodd" xmlns:xlink="http://www.w3.org/1999/xlink">
<g><path style="opacity:1" fill="#bdcfe9" d="M 347.5,-0.5 C 349.167,-0.5 350.833,-0.5 352.5,-0.5C 419.057,16.8652 471.89,53.8652 511,110.5C 511.804,111.804 512.971,112.471 514.5,112.5C 591.712,91.5557 670.045,86.0557 749.5,96C 771.182,99.2248 792.849,102.558 814.5,106C 823.318,107.597 831.985,109.763 840.5,112.5C 876.418,68.4191 921.085,36.5858 974.5,17C 989.318,11.7274 1004.32,7.0607 1019.5,3C 1027.34,1.59699 1034.67,2.93032 1041.5,7C 1075.38,32.2115 1098.88,65.0449 1112,105.5C 1131.16,170.861 1125.83,234.194 1096,295.5C 1095.33,296.5 1095.33,297.5 1096,298.5C 1184.82,403.838 1241.15,524.838 1265,661.5C 1274.55,734.4 1262.22,803.4 1228,868.5C 1213.57,895.048 1196.9,920.048 1178,943.5C 1134.52,995.659 1085.35,1041.49 1030.5,1081C 909.482,1165.34 778.149,1229.17 636.5,1272.5C 636.167,1272.5 635.833,1272.5 635.5,1272.5C 643.104,1263.72 650.938,1255.06 659,1246.5C 678.189,1223.45 693.022,1197.78 703.5,1169.5C 703.167,1169.17 702.833,1168.83 702.5,1168.5C 649.04,1200.73 593.04,1227.9 534.5,1250C 510.266,1258.25 485.932,1265.75 461.5,1272.5C 460.167,1272.5 458.833,1272.5 457.5,1272.5C 483.093,1240.66 501.926,1204.99 514,1165.5C 515.989,1158.56 517.323,1151.56 518,1144.5C 457.23,1187.92 389.73,1213.92 315.5,1222.5C 347.527,1196.43 372.36,1164.76 390,1127.5C 402.205,1100.81 407.872,1072.81 407,1043.5C 365.462,1078.03 317.962,1099.86 264.5,1109C 330.167,1059.7 354.667,994.537 338,913.5C 331.886,886.491 322.219,860.824 309,836.5C 273.084,849.011 236.25,853.177 198.5,849C 156.395,840.054 126.895,815.887 110,776.5C 108.833,775.333 107.667,774.167 106.5,773C 86.9449,763.11 70.7782,749.277 58,731.5C 30.9021,686.206 14.5688,637.206 9,584.5C 6.7055,568.265 9.37216,552.932 17,538.5C 20.1311,534.367 23.6311,530.534 27.5,527C 52.2184,514.256 75.8851,499.923 98.5,484C 131.01,460.912 163.343,437.578 195.5,414C 204.724,406.551 209.057,396.884 208.5,385C 206.171,370.011 203.837,355.011 201.5,340C 201.356,330.765 204.189,322.598 210,315.5C 234.536,288.631 260.036,262.797 286.5,238C 261.11,173.528 264.61,110.694 297,49.5C 309.739,28.5937 326.572,11.927 347.5,-0.5 Z"/></g>
<g><path style="opacity:1" fill="#bacbe8" d="M 1083.5,155.5 C 1074.95,116.569 1056.62,83.0695 1028.5,55C 1026.71,53.217 1024.54,52.3836 1022,52.5C 976.396,60.2244 936.229,79.0577 901.5,109C 887.935,121.064 875.269,133.897 863.5,147.5C 864.493,142.687 865.993,138.02 868,133.5C 873.292,126.54 878.958,119.873 885,113.5C 896.409,104.213 907.909,95.0464 919.5,86C 928.596,80.7854 937.929,76.1187 947.5,72C 952.268,67.2306 957.601,63.2306 963.5,60C 982.078,52.8123 1000.91,46.3123 1020,40.5C 1025.01,46.265 1031.18,50.4317 1038.5,53C 1045.01,59.1953 1050.18,66.3619 1054,74.5C 1058.38,79.2114 1062.38,84.2114 1066,89.5C 1069.8,101.23 1073.8,112.897 1078,124.5C 1080.48,134.728 1082.32,145.061 1083.5,155.5 Z"/></g>
<g><path style="opacity:1" fill="#264372" d="M 425.5,147.5 C 417.661,119.978 403.327,96.4785 382.5,77C 368.341,64.1101 351.674,56.9434 332.5,55.5C 335.546,52.6433 339.213,50.81 343.5,50C 350.5,49.3333 357.5,49.3333 364.5,50C 381.673,53.9218 397.673,60.5885 412.5,70C 435.96,86.4497 457.96,104.783 478.5,125C 460.807,132.515 443.141,140.015 425.5,147.5 Z"/></g>
<g><path style="opacity:1" fill="#264371" d="M 1083.5,155.5 C 1084.83,166.814 1085.83,178.147 1086.5,189.5C 1086.17,199.015 1086.51,208.348 1087.5,217.5C 1084.32,235.578 1078.98,252.912 1071.5,269.5C 1068.99,273.182 1066.99,277.182 1065.5,281.5C 1059.08,292.003 1052.42,302.337 1045.5,312.5C 1043.41,313.585 1042.08,315.251 1041.5,317.5C 1033.83,324.5 1026.5,331.833 1019.5,339.5C 1016.91,340.419 1014.91,342.086 1013.5,344.5C 1011.25,345.08 1009.58,346.413 1008.5,348.5C 999.669,354.417 990.669,360.083 981.5,365.5C 977.849,366.659 974.515,368.326 971.5,370.5C 962.795,374.068 953.795,377.068 944.5,379.5C 944.5,380.5 944.5,381.5 944.5,382.5C 985.862,381.278 1022.53,368.278 1054.5,343.5C 1057.26,343.744 1059.43,345.077 1061,347.5C 1067.72,356.044 1074.22,364.71 1080.5,373.5C 1086.81,383.795 1093.47,393.795 1100.5,403.5C 1104.9,412.63 1109.57,421.63 1114.5,430.5C 1120.8,442.777 1127.47,454.777 1134.5,466.5C 1138.32,473.803 1141.82,481.137 1145,488.5C 1136.93,480.895 1128.43,473.895 1119.5,467.5C 1094.75,449.123 1067.75,434.956 1038.5,425C 1050.79,439.411 1060.12,455.578 1066.5,473.5C 1070.02,485.597 1072.35,497.93 1073.5,510.5C 1073.95,515.237 1074.62,519.903 1075.5,524.5C 1076.35,535.143 1076.68,545.81 1076.5,556.5C 1076.16,565.2 1075.49,573.867 1074.5,582.5C 1073.17,589.112 1072.17,595.778 1071.5,602.5C 1069.03,611.361 1066.7,620.361 1064.5,629.5C 1063.4,631.277 1062.57,633.277 1062,635.5C 1061.79,626.084 1060.96,616.75 1059.5,607.5C 1058.91,599.669 1057.57,592.002 1055.5,584.5C 1050.9,559.205 1042.07,535.538 1029,513.5C 1028.68,538.369 1026.18,563.035 1021.5,587.5C 1019.21,595.32 1017.21,603.32 1015.5,611.5C 1011.53,623.081 1007.53,634.748 1003.5,646.5C 999.989,652.861 996.989,659.528 994.5,666.5C 991.326,671.516 988.659,676.849 986.5,682.5C 977.083,698.996 966.416,714.663 954.5,729.5C 953.604,730.506 952.938,730.506 952.5,729.5C 957.499,710.844 960.166,691.844 960.5,672.5C 960.57,645.201 957.737,618.201 952,591.5C 948.82,619.888 942.32,647.555 932.5,674.5C 922.958,696.595 910.624,716.929 895.5,735.5C 887.195,744.808 878.862,754.141 870.5,763.5C 863.474,770.194 856.474,776.861 849.5,783.5C 837.142,793.53 824.809,803.53 812.5,813.5C 799.796,822.512 787.129,831.512 774.5,840.5C 770.595,842.703 766.762,845.036 763,847.5C 761.97,847.164 761.47,846.497 761.5,845.5C 780.945,816.258 800.111,786.925 819,757.5C 825.112,746.939 830.945,736.273 836.5,725.5C 838.588,723.664 839.921,721.331 840.5,718.5C 842.659,712.849 845.326,707.516 848.5,702.5C 850.293,700.574 851.293,698.241 851.5,695.5C 867.195,664.398 876.529,631.398 879.5,596.5C 880.166,589.675 880.5,582.675 880.5,575.5C 880.676,564.957 880.009,554.623 878.5,544.5C 878.001,535.669 876.667,527.002 874.5,518.5C 874.435,515.572 873.768,512.905 872.5,510.5C 868.32,489.958 862.32,469.958 854.5,450.5C 853.833,449.833 853.167,449.167 852.5,448.5C 852.167,448.833 851.833,449.167 851.5,449.5C 859.404,477.974 862.404,506.974 860.5,536.5C 859.479,540.98 858.813,545.647 858.5,550.5C 854.146,584.595 845.146,617.262 831.5,648.5C 829.326,651.515 827.659,654.849 826.5,658.5C 819.665,670.174 812.332,681.507 804.5,692.5C 802.413,693.585 801.08,695.251 800.5,697.5C 797.427,699.569 795.094,702.236 793.5,705.5C 792.167,706.167 791.167,707.167 790.5,708.5C 786.5,711.833 782.833,715.5 779.5,719.5C 776.236,721.094 773.569,723.427 771.5,726.5C 769.251,727.08 767.585,728.413 766.5,730.5C 764.251,731.08 762.585,732.413 761.5,734.5C 731.548,755.563 698.548,770.396 662.5,779C 647.589,782.416 632.589,785.249 617.5,787.5C 612.647,787.813 607.98,788.479 603.5,789.5C 580.844,790.538 558.177,790.704 535.5,790C 512.851,788.423 490.184,787.256 467.5,786.5C 464.359,785.679 461.025,785.179 457.5,785C 462.552,779.034 467.218,772.867 471.5,766.5C 472.23,768.045 473.563,768.878 475.5,769C 529.999,779.554 584.333,778.887 638.5,767C 751.817,736.688 816.651,663.522 833,547.5C 838.244,496.319 831.911,446.653 814,398.5C 812.845,455.121 799.179,508.454 773,558.5C 738.456,616.028 689.623,656.528 626.5,680C 583.031,697.023 538.031,703.856 491.5,700.5C 491.802,703.059 491.468,705.393 490.5,707.5C 490.5,705.167 490.5,702.833 490.5,700.5C 489.434,677.375 483.934,655.375 474,634.5C 460.875,605.569 445.209,578.235 427,552.5C 405.243,523.32 383.243,494.32 361,465.5C 355.03,455.949 353.03,445.616 355,434.5C 357.199,412.84 361.699,391.674 368.5,371C 383.712,362.978 399.378,355.812 415.5,349.5C 409.745,367.52 405.078,385.853 401.5,404.5C 403.291,405.17 404.958,405.837 406.5,406.5C 400.501,405.795 398.168,408.462 399.5,414.5C 401.796,438.258 411.463,458.424 428.5,475C 442.046,488.443 458.046,497.777 476.5,503C 493.791,505.944 509.457,502.278 523.5,492C 529.302,487.2 534.802,482.033 540,476.5C 551.244,461.678 562.244,446.678 573,431.5C 591.545,407.474 616.045,394.308 646.5,392C 620.011,382.764 596.344,368.931 575.5,350.5C 563.589,338.753 550.922,327.92 537.5,318C 511.214,301.623 483.214,297.956 453.5,307C 432.246,314.303 411.246,321.97 390.5,330C 406.039,303.109 425.372,279.109 448.5,258C 475.616,234.39 505.282,214.557 537.5,198.5C 669.027,189.938 780.86,232.271 873,325.5C 922.887,379.587 956.887,442.587 975,514.5C 964.757,403.134 914.59,314.967 824.5,250C 754.717,204.544 678.051,180.378 594.5,177.5C 592.36,177.444 590.694,176.777 589.5,175.5C 647.013,155.045 706.346,145.378 767.5,146.5C 794.928,146.756 822.262,148.423 849.5,151.5C 850.573,152.251 850.74,153.251 850,154.5C 837.588,171.652 825.921,189.319 815,207.5C 810.724,215.374 807.058,223.374 804,231.5C 821.14,201.539 840.973,173.539 863.5,147.5C 875.269,133.897 887.935,121.064 901.5,109C 936.229,79.0577 976.396,60.2244 1022,52.5C 1024.54,52.3836 1026.71,53.217 1028.5,55C 1056.62,83.0695 1074.95,116.569 1083.5,155.5 Z"/></g>
<g><path style="opacity:1" fill="#15253f" d="M 332.5,55.5 C 351.674,56.9434 368.341,64.1101 382.5,77C 403.327,96.4785 417.661,119.978 425.5,147.5C 419.062,150.553 412.729,153.886 406.5,157.5C 399.093,143.852 390.093,131.352 379.5,120C 372.86,114.011 365.527,109.011 357.5,105C 345.819,101.924 336.652,105.424 330,115.5C 326.468,122.095 324.135,129.095 323,136.5C 320.433,159.033 323.6,180.699 332.5,201.5C 327.521,205.311 322.688,209.311 318,213.5C 307.621,197.03 301.621,179.03 300,159.5C 297.978,138.007 300.312,117.007 307,96.5C 311.667,85.8333 316.333,75.1667 321,64.5C 324.155,60.4975 327.988,57.4975 332.5,55.5 Z"/></g>
<g><path style="opacity:1" fill="#0e192a" d="M 998.5,103.5 C 1003.18,103.334 1007.85,103.501 1012.5,104C 1019.59,107.421 1025.09,112.588 1029,119.5C 1045.66,149.752 1049.99,181.752 1042,215.5C 1035.84,237.661 1024.67,256.828 1008.5,273C 987.564,290.391 964.231,303.891 938.5,313.5C 926.043,299.21 912.71,285.71 898.5,273C 880.535,258.344 861.201,245.677 840.5,235C 857.916,226.921 873.083,215.755 886,201.5C 900.109,183.39 913.443,164.723 926,145.5C 944.936,122.466 969.102,108.466 998.5,103.5 Z"/></g>
<g><path style="opacity:1" fill="#bbcce8" d="M 849.5,151.5 C 822.262,148.423 794.928,146.756 767.5,146.5C 706.346,145.378 647.013,155.045 589.5,175.5C 572.095,183.183 554.761,190.85 537.5,198.5C 505.282,214.557 475.616,234.39 448.5,258C 425.372,279.109 406.039,303.109 390.5,330C 411.246,321.97 432.246,314.303 453.5,307C 483.214,297.956 511.214,301.623 537.5,318C 550.922,327.92 563.589,338.753 575.5,350.5C 575.44,351.043 575.107,351.376 574.5,351.5C 566.08,345.743 557.414,340.41 548.5,335.5C 518.323,319.877 487.323,318.377 455.5,331C 441.806,336.503 428.472,342.67 415.5,349.5C 399.378,355.812 383.712,362.978 368.5,371C 361.699,391.674 357.199,412.84 355,434.5C 353.03,445.616 355.03,455.949 361,465.5C 383.243,494.32 405.243,523.32 427,552.5C 445.209,578.235 460.875,605.569 474,634.5C 483.934,655.375 489.434,677.375 490.5,700.5C 486.833,700.5 483.167,700.5 479.5,700.5C 477.541,684.121 473.041,668.455 466,653.5C 452.358,626.205 436.691,600.205 419,575.5C 393.859,543.221 370.193,509.888 348,475.5C 339.767,461.559 335.434,446.559 335,430.5C 335.903,422.649 337.57,414.983 340,407.5C 343.354,398.496 346.354,389.496 349,380.5C 325.102,413.018 298.268,443.185 268.5,471C 246.875,490.804 224.875,510.138 202.5,529C 197.284,533.097 191.951,536.931 186.5,540.5C 186.358,537.383 185.024,534.883 182.5,533C 174.837,529.171 167.504,524.837 160.5,520C 150.071,516.714 139.404,514.714 128.5,514C 138.781,504.525 150.114,496.525 162.5,490C 179.373,472.242 198.706,457.909 220.5,447C 227.562,437.798 236.229,430.464 246.5,425C 249.704,422.131 252.537,418.965 255,415.5C 255.667,413.167 255.667,410.833 255,408.5C 253.698,407.915 252.531,407.249 251.5,406.5C 252.496,406.586 253.329,406.252 254,405.5C 257,401.167 260,396.833 263,392.5C 263.495,390.527 263.662,388.527 263.5,386.5C 263.422,391.609 265.922,394.942 271,396.5C 272.982,396.01 274.649,395.01 276,393.5C 278.952,389.334 279.785,384.834 278.5,380C 279.742,374.88 280.242,369.713 280,364.5C 269.141,351.942 258.641,339.109 248.5,326C 253.531,324.794 258.531,323.46 263.5,322C 265.751,321.252 267.084,319.752 267.5,317.5C 271.967,323.438 275.133,330.104 277,337.5C 298.774,298.035 326.274,262.868 359.5,232C 368.661,224.671 377.327,216.837 385.5,208.5C 385.435,208.062 385.601,207.728 386,207.5C 387.064,211.295 389.564,212.461 393.5,211C 403.564,203.939 413.898,197.273 424.5,191C 441.776,182.195 459.109,173.695 476.5,165.5C 491.219,163.323 505.886,160.823 520.5,158C 523.034,157.484 525.2,156.317 527,154.5C 527.254,151.805 527.421,149.305 527.5,147C 593.678,131.686 660.678,126.02 728.5,130C 733.533,130.171 738.533,130.671 743.5,131.5C 744.771,133.829 746.771,134.995 749.5,135C 783.297,138.552 816.63,144.052 849.5,151.5 Z"/></g>
<g><path style="opacity:1" fill="#2f548f" d="M 589.5,175.5 C 590.694,176.777 592.36,177.444 594.5,177.5C 678.051,180.378 754.717,204.544 824.5,250C 914.59,314.967 964.757,403.134 975,514.5C 956.887,442.587 922.887,379.587 873,325.5C 780.86,232.271 669.027,189.938 537.5,198.5C 554.761,190.85 572.095,183.183 589.5,175.5 Z"/></g>
<g><path style="opacity:1" fill="#325895" d="M 385.5,208.5 C 377.327,216.837 368.661,224.671 359.5,232C 326.274,262.868 298.774,298.035 277,337.5C 275.133,330.104 271.967,323.438 267.5,317.5C 279.958,296.852 295.291,278.352 313.5,262C 335.704,241.613 359.704,223.779 385.5,208.5 Z"/></g>
<g><path style="opacity:1" fill="#688cc5" d="M 1086.5,189.5 C 1087.22,198.018 1087.89,206.684 1088.5,215.5C 1088.46,216.416 1088.12,217.083 1087.5,217.5C 1086.51,208.348 1086.17,199.015 1086.5,189.5 Z"/></g>
<g><path style="opacity:1" fill="#6f94cf" d="M 1071.5,269.5 C 1070.54,274.086 1068.54,278.086 1065.5,281.5C 1066.99,277.182 1068.99,273.182 1071.5,269.5 Z"/></g>
<g><path style="opacity:1" fill="#7095cf" d="M 1045.5,312.5 C 1044.92,314.749 1043.59,316.415 1041.5,317.5C 1042.08,315.251 1043.41,313.585 1045.5,312.5 Z"/></g>
<g><path style="opacity:1" fill="#152640" d="M 548.5,335.5 C 530.387,332.771 513.387,336.271 497.5,346C 491.99,349.588 486.657,353.422 481.5,357.5C 503.213,365.688 524.213,375.522 544.5,387C 549.772,388.869 555.106,390.535 560.5,392C 546.136,394.673 532.469,399.34 519.5,406C 508.82,415.671 496.82,423.337 483.5,429C 469.923,433.118 456.257,433.451 442.5,430C 440.33,428.414 437.996,427.08 435.5,426C 429.691,420.037 424.358,413.704 419.5,407C 415.179,406.501 410.846,406.334 406.5,406.5C 404.958,405.837 403.291,405.17 401.5,404.5C 405.078,385.853 409.745,367.52 415.5,349.5C 428.472,342.67 441.806,336.503 455.5,331C 487.323,318.377 518.323,319.877 548.5,335.5 Z"/></g>
<g><path style="opacity:1" fill="#7095cf" d="M 1041.5,317.5 C 1041.63,318.239 1041.46,318.906 1041,319.5C 1034.24,326.761 1027.08,333.428 1019.5,339.5C 1026.5,331.833 1033.83,324.5 1041.5,317.5 Z"/></g>
<g><path style="opacity:1" fill="#4676c1" d="M 548.5,335.5 C 557.414,340.41 566.08,345.743 574.5,351.5C 575.107,351.376 575.44,351.043 575.5,350.5C 596.344,368.931 620.011,382.764 646.5,392C 616.045,394.308 591.545,407.474 573,431.5C 562.244,446.678 551.244,461.678 540,476.5C 534.802,482.033 529.302,487.2 523.5,492C 509.457,502.278 493.791,505.944 476.5,503C 458.046,497.777 442.046,488.443 428.5,475C 411.463,458.424 401.796,438.258 399.5,414.5C 398.168,408.462 400.501,405.795 406.5,406.5C 410.846,406.334 415.179,406.501 419.5,407C 424.358,413.704 429.691,420.037 435.5,426C 437.996,427.08 440.33,428.414 442.5,430C 456.257,433.451 469.923,433.118 483.5,429C 496.82,423.337 508.82,415.671 519.5,406C 532.469,399.34 546.136,394.673 560.5,392C 555.106,390.535 549.772,388.869 544.5,387C 524.213,375.522 503.213,365.688 481.5,357.5C 486.657,353.422 491.99,349.588 497.5,346C 513.387,336.271 530.387,332.771 548.5,335.5 Z"/></g>
<g><path style="opacity:1" fill="#95b0db" d="M 1107.5,369.5 C 1106.74,370.268 1105.74,370.768 1104.5,371C 1096.48,371.768 1088.48,372.602 1080.5,373.5C 1074.22,364.71 1067.72,356.044 1061,347.5C 1059.43,345.077 1057.26,343.744 1054.5,343.5C 1060.16,336.846 1066.49,330.846 1073.5,325.5C 1086,339.323 1097.33,353.99 1107.5,369.5 Z"/></g>
<g><path style="opacity:1" fill="#779ad1" d="M 1019.5,339.5 C 1018.09,341.914 1016.09,343.581 1013.5,344.5C 1014.91,342.086 1016.91,340.419 1019.5,339.5 Z"/></g>
<g><path style="opacity:1" fill="#799bd2" d="M 1013.5,344.5 C 1012.42,346.587 1010.75,347.92 1008.5,348.5C 1009.58,346.413 1011.25,345.08 1013.5,344.5 Z"/></g>
<g><path style="opacity:1" fill="#6f94cf" d="M 981.5,365.5 C 978.753,368.207 975.42,369.873 971.5,370.5C 974.515,368.326 977.849,366.659 981.5,365.5 Z"/></g>
<g><path style="opacity:1" fill="#152640" d="M 257.5,377.5 C 257.624,386.896 253.291,390.396 244.5,388C 242.297,385.628 239.963,383.461 237.5,381.5C 236.167,381.5 234.833,381.5 233.5,381.5C 229.683,379.023 229.683,376.523 233.5,374C 239.026,370.451 245.026,369.118 251.5,370C 252.357,370.689 253.023,371.522 253.5,372.5C 247.933,372.551 246.266,375.051 248.5,380C 252.346,381.157 255.179,379.991 257,376.5C 257.399,376.728 257.565,377.062 257.5,377.5 Z"/></g>
<g><path style="opacity:1" fill="#3f6fbb" d="M 485.5,374.5 C 485.174,381.656 485.007,388.989 485,396.5C 482.798,408.744 476.298,417.911 465.5,424C 464.001,424.838 463.668,425.671 464.5,426.5C 445.597,429.35 433.264,421.35 427.5,402.5C 429.435,399.062 431.935,396.062 435,393.5C 435.92,409.091 444.086,415.925 459.5,414C 470.728,409.716 476.061,401.55 475.5,389.5C 477.195,382.537 474.529,378.537 467.5,377.5C 466.235,376.521 464.901,375.521 463.5,374.5C 464.025,373.808 464.692,373.308 465.5,373C 472.4,372.21 479.066,372.71 485.5,374.5 Z"/></g>
<g><path style="opacity:1" fill="#b9cbe8" d="M 485.5,374.5 C 493.912,376.583 501.912,379.749 509.5,384C 513.314,386.647 516.647,389.813 519.5,393.5C 505.919,412.412 487.586,423.412 464.5,426.5C 463.668,425.671 464.001,424.838 465.5,424C 476.298,417.911 482.798,408.744 485,396.5C 485.007,388.989 485.174,381.656 485.5,374.5 Z"/></g>
<g><path style="opacity:1" fill="#4171bd" d="M 257.5,377.5 C 260.277,379.951 262.277,382.951 263.5,386.5C 263.662,388.527 263.495,390.527 263,392.5C 260,396.833 257,401.167 254,405.5C 253.329,406.252 252.496,406.586 251.5,406.5C 246.833,403.833 243.167,400.167 240.5,395.5C 241.613,394.054 241.78,392.387 241,390.5C 239.336,387.673 238.17,384.673 237.5,381.5C 239.963,383.461 242.297,385.628 244.5,388C 253.291,390.396 257.624,386.896 257.5,377.5 Z"/></g>
<g><path style="opacity:1" fill="#b2c5e5" d="M 467.5,377.5 C 474.529,378.537 477.195,382.537 475.5,389.5C 469.534,391.887 465.868,389.887 464.5,383.5C 464.984,381.199 465.984,379.199 467.5,377.5 Z"/></g>
<g><path style="opacity:1" fill="#a8bde2" d="M 233.5,381.5 C 234.833,381.5 236.167,381.5 237.5,381.5C 238.17,384.673 239.336,387.673 241,390.5C 241.78,392.387 241.613,394.054 240.5,395.5C 236.065,391.963 233.732,387.297 233.5,381.5 Z"/></g>
<g><path style="opacity:1" fill="#8daad9" d="M 1107.5,369.5 C 1114.91,378.593 1121.58,388.26 1127.5,398.5C 1126.77,400.045 1125.44,400.878 1123.5,401C 1115.8,401.703 1108.14,402.536 1100.5,403.5C 1093.47,393.795 1086.81,383.795 1080.5,373.5C 1088.48,372.602 1096.48,371.768 1104.5,371C 1105.74,370.768 1106.74,370.268 1107.5,369.5 Z"/></g>
<g><path style="opacity:1" fill="#85a4d6" d="M 479.5,700.5 C 444.767,695.106 410.1,695.273 375.5,701C 369.248,702.959 362.914,704.625 356.5,706C 353.826,706.67 351.493,707.837 349.5,709.5C 326.429,715.037 305.429,724.87 286.5,739C 276.311,745.005 265.311,747.505 253.5,746.5C 219.344,745.141 185.678,740.308 152.5,732C 144.227,730.131 136.227,727.464 128.5,724C 123.338,719.852 119.505,714.686 117,708.5C 113.387,699.046 110.554,689.379 108.5,679.5C 113.217,678.308 117.55,676.308 121.5,673.5C 124.286,671.887 126.953,670.054 129.5,668C 137.554,659.946 145.554,651.946 153.5,644C 152.429,643.148 151.429,642.315 150.5,641.5C 151.822,641.33 152.989,641.663 154,642.5C 185.46,623.912 199.127,596.245 195,559.5C 193.792,553.415 190.792,548.415 186,544.5C 185.421,543.072 185.588,541.738 186.5,540.5C 191.951,536.931 197.284,533.097 202.5,529C 224.875,510.138 246.875,490.804 268.5,471C 298.268,443.185 325.102,413.018 349,380.5C 346.354,389.496 343.354,398.496 340,407.5C 337.57,414.983 335.903,422.649 335,430.5C 335.434,446.559 339.767,461.559 348,475.5C 370.193,509.888 393.859,543.221 419,575.5C 436.691,600.205 452.358,626.205 466,653.5C 473.041,668.455 477.541,684.121 479.5,700.5 Z"/></g>
<g><path style="opacity:1" fill="#15253f" d="M 471.5,766.5 C 477.006,756.152 481.84,745.485 486,734.5C 488.383,725.655 489.883,716.655 490.5,707.5C 491.468,705.393 491.802,703.059 491.5,700.5C 538.031,703.856 583.031,697.023 626.5,680C 689.623,656.528 738.456,616.028 773,558.5C 799.179,508.454 812.845,455.121 814,398.5C 831.911,446.653 838.244,496.319 833,547.5C 816.651,663.522 751.817,736.688 638.5,767C 584.333,778.887 529.999,779.554 475.5,769C 473.563,768.878 472.23,768.045 471.5,766.5 Z"/></g>
<g><path style="opacity:1" fill="#85a5d6" d="M 1127.5,398.5 C 1133.95,407.302 1139.62,416.635 1144.5,426.5C 1144.39,427.117 1144.06,427.617 1143.5,428C 1133.84,428.966 1124.17,429.8 1114.5,430.5C 1109.57,421.63 1104.9,412.63 1100.5,403.5C 1108.14,402.536 1115.8,401.703 1123.5,401C 1125.44,400.878 1126.77,400.045 1127.5,398.5 Z"/></g>
<g><path style="opacity:1" fill="#7c9ed3" d="M 1144.5,426.5 C 1151.59,437.679 1157.93,449.346 1163.5,461.5C 1162.77,463.045 1161.44,463.878 1159.5,464C 1151.16,464.834 1142.83,465.667 1134.5,466.5C 1127.47,454.777 1120.8,442.777 1114.5,430.5C 1124.17,429.8 1133.84,428.966 1143.5,428C 1144.06,427.617 1144.39,427.117 1144.5,426.5 Z"/></g>
<g><path style="opacity:1" fill="#7c9ed3" d="M 1119.5,467.5 C 1101.99,469.686 1084.32,471.686 1066.5,473.5C 1060.12,455.578 1050.79,439.411 1038.5,425C 1067.75,434.956 1094.75,449.123 1119.5,467.5 Z"/></g>
<g><path style="opacity:1" fill="#7397d0" d="M 1163.5,461.5 C 1170.62,474.738 1176.95,488.404 1182.5,502.5C 1148.15,505.635 1113.82,508.968 1079.5,512.5C 1077.21,512.324 1075.21,511.657 1073.5,510.5C 1072.35,497.93 1070.02,485.597 1066.5,473.5C 1084.32,471.686 1101.99,469.686 1119.5,467.5C 1128.43,473.895 1136.93,480.895 1145,488.5C 1141.82,481.137 1138.32,473.803 1134.5,466.5C 1142.83,465.667 1151.16,464.834 1159.5,464C 1161.44,463.878 1162.77,463.045 1163.5,461.5 Z"/></g>
<g><path style="opacity:1" fill="#6e93ce" d="M 1182.5,502.5 C 1184.15,505.759 1185.82,509.093 1187.5,512.5C 1168.61,515.189 1149.61,517.356 1130.5,519C 1126.11,519.772 1121.78,519.606 1117.5,518.5C 1115.44,520.019 1113.11,520.853 1110.5,521C 1098.83,522.167 1087.16,523.334 1075.5,524.5C 1074.62,519.903 1073.95,515.237 1073.5,510.5C 1075.21,511.657 1077.21,512.324 1079.5,512.5C 1113.82,508.968 1148.15,505.635 1182.5,502.5 Z"/></g>
<g><path style="opacity:1" fill="#688fcd" d="M 1187.5,512.5 C 1191.76,522.618 1195.43,532.951 1198.5,543.5C 1187.13,544.904 1175.79,546.571 1164.5,548.5C 1150.07,538.428 1135.07,529.095 1119.5,520.5C 1119.17,520.667 1118.83,520.833 1118.5,521C 1125.9,530.288 1131.9,540.455 1136.5,551.5C 1116.48,552.101 1096.48,553.768 1076.5,556.5C 1076.68,545.81 1076.35,535.143 1075.5,524.5C 1087.16,523.334 1098.83,522.167 1110.5,521C 1113.11,520.853 1115.44,520.019 1117.5,518.5C 1121.78,519.606 1126.11,519.772 1130.5,519C 1149.61,517.356 1168.61,515.189 1187.5,512.5 Z"/></g>
<g><path style="opacity:1" fill="#799bd2" d="M 872.5,510.5 C 873.768,512.905 874.435,515.572 874.5,518.5C 872.96,516.162 872.294,513.495 872.5,510.5 Z"/></g>
<g><path style="opacity:1" fill="#1a2e4d" d="M 170.5,544.5 C 170.44,545.043 170.107,545.376 169.5,545.5C 155.171,539.267 140.171,535.767 124.5,535C 111.5,534.333 98.5,534.333 85.5,535C 67.3839,535.192 50.7173,540.025 35.5,549.5C 40.0622,544.205 45.7289,540.372 52.5,538C 86.7169,523.074 121.384,521.741 156.5,534C 161.375,537.266 166.042,540.766 170.5,544.5 Z"/></g>
<g><path style="opacity:1" fill="#527ec4" d="M 170.5,544.5 C 172.833,546.167 174.833,548.167 176.5,550.5C 145.21,551.048 114.543,555.715 84.5,564.5C 74.5,561.333 64.5,558.167 54.5,555C 47.5621,553.578 40.5621,552.745 33.5,552.5C 33.427,550.973 34.0937,549.973 35.5,549.5C 50.7173,540.025 67.3839,535.192 85.5,535C 98.5,534.333 111.5,534.333 124.5,535C 140.171,535.767 155.171,539.267 169.5,545.5C 170.107,545.376 170.44,545.043 170.5,544.5 Z"/></g>
<g><path style="opacity:1" fill="#5f89ca" d="M 1198.5,543.5 C 1205.7,561.302 1211.2,579.636 1215,598.5C 1199.6,580.268 1182.77,563.601 1164.5,548.5C 1175.79,546.571 1187.13,544.904 1198.5,543.5 Z"/></g>
<g><path style="opacity:1" fill="#8eaad9" d="M 860.5,536.5 C 860.877,541.453 860.211,546.119 858.5,550.5C 858.813,545.647 859.479,540.98 860.5,536.5 Z"/></g>
<g><path style="opacity:1" fill="#192c4b" d="M 176.5,550.5 C 181.874,555.602 184.54,561.935 184.5,569.5C 184.024,579.071 181.524,588.071 177,596.5C 175.981,597.687 174.814,598.687 173.5,599.5C 165.741,592.284 156.741,587.117 146.5,584C 139.433,583.161 132.433,583.494 125.5,585C 114.566,590.037 110.399,598.537 113,610.5C 113.24,612.852 114.073,614.852 115.5,616.5C 115.461,619.089 116.461,621.089 118.5,622.5C 125.376,634.948 136.043,641.281 150.5,641.5C 151.429,642.315 152.429,643.148 153.5,644C 145.554,651.946 137.554,659.946 129.5,668C 126.953,670.054 124.286,671.887 121.5,673.5C 121.083,672.876 120.416,672.543 119.5,672.5C 115.046,675.107 110.379,675.774 105.5,674.5C 103.167,671.5 100.5,668.833 97.5,666.5C 87.9632,653.764 79.7966,640.097 73,625.5C 71,618.833 69,612.167 67,605.5C 65.5558,601.589 63.3891,598.256 60.5,595.5C 59.5,592.5 57.5,590.5 54.5,589.5C 49.1026,584.249 42.936,583.249 36,586.5C 34.4138,588.67 33.0804,591.004 32,593.5C 30.9497,589.197 30.1164,584.863 29.5,580.5C 29.313,574.788 29.6463,569.121 30.5,563.5C 31.3359,559.677 32.3359,556.011 33.5,552.5C 40.5621,552.745 47.5621,553.578 54.5,555C 64.5,558.167 74.5,561.333 84.5,564.5C 114.543,555.715 145.21,551.048 176.5,550.5 Z"/></g>
<g><path style="opacity:1" fill="#618aca" d="M 1136.5,551.5 C 1139.5,559.505 1142.5,567.505 1145.5,575.5C 1121.83,577.767 1098.16,580.101 1074.5,582.5C 1075.49,573.867 1076.16,565.2 1076.5,556.5C 1096.48,553.768 1116.48,552.101 1136.5,551.5 Z"/></g>
<g><path style="opacity:1" fill="#8facda" d="M 30.5,563.5 C 29.6463,569.121 29.313,574.788 29.5,580.5C 28.3503,575.684 28.1837,570.684 29,565.5C 29.2784,564.584 29.7784,563.918 30.5,563.5 Z"/></g>
<g><path style="opacity:1" fill="#98b2dc" d="M 878.5,544.5 C 880.009,554.623 880.676,564.957 880.5,575.5C 880.5,582.675 880.166,589.675 879.5,596.5C 879.654,579.153 879.321,561.82 878.5,544.5 Z"/></g>
<g><path style="opacity:1" fill="#6189ca" d="M 1055.5,584.5 C 1044.18,585.632 1032.85,586.632 1021.5,587.5C 1026.18,563.035 1028.68,538.369 1029,513.5C 1042.07,535.538 1050.9,559.205 1055.5,584.5 Z"/></g>
<g><path style="opacity:1" fill="#15253f" d="M 1160.5,574.5 C 1212.34,620.516 1232.51,677.85 1221,746.5C 1214.62,773.346 1207.62,800.012 1200,826.5C 1200.47,814.486 1201.47,802.486 1203,790.5C 1207.68,730.259 1199.35,671.926 1178,615.5C 1172.15,601.812 1166.32,588.145 1160.5,574.5 Z"/></g>
<g><path style="opacity:1" fill="#5a85c8" d="M 1145.5,575.5 C 1147.91,583.061 1149.91,590.727 1151.5,598.5C 1124.83,600.833 1098.17,603.167 1071.5,605.5C 1071.5,604.5 1071.5,603.5 1071.5,602.5C 1072.17,595.778 1073.17,589.112 1074.5,582.5C 1098.16,580.101 1121.83,577.767 1145.5,575.5 Z"/></g>
<g><path style="opacity:1" fill="#5984c7" d="M 1055.5,584.5 C 1057.57,592.002 1058.91,599.669 1059.5,607.5C 1044.81,608.653 1030.15,609.987 1015.5,611.5C 1017.21,603.32 1019.21,595.32 1021.5,587.5C 1032.85,586.632 1044.18,585.632 1055.5,584.5 Z"/></g>
<g><path style="opacity:1" fill="#7599d1" d="M 54.5,589.5 C 57.5,590.5 59.5,592.5 60.5,595.5C 58.1667,593.833 56.1667,591.833 54.5,589.5 Z"/></g>
<g><path style="opacity:1" fill="#5480c6" d="M 1151.5,598.5 C 1153.79,605.647 1155.79,612.98 1157.5,620.5C 1126.52,623.698 1095.52,626.698 1064.5,629.5C 1066.7,620.361 1069.03,611.361 1071.5,602.5C 1071.5,603.5 1071.5,604.5 1071.5,605.5C 1098.17,603.167 1124.83,600.833 1151.5,598.5 Z"/></g>
<g><path style="opacity:1" fill="#7a9cd3" d="M 115.5,616.5 C 117.008,618.181 118.008,620.181 118.5,622.5C 116.461,621.089 115.461,619.089 115.5,616.5 Z"/></g>
<g><path style="opacity:1" fill="#517ec5" d="M 1059.5,607.5 C 1060.96,616.75 1061.79,626.084 1062,635.5C 1062.57,633.277 1063.4,631.277 1064.5,629.5C 1095.52,626.698 1126.52,623.698 1157.5,620.5C 1158.42,624.79 1159.09,629.124 1159.5,633.5C 1157.59,632.906 1155.59,632.573 1153.5,632.5C 1103.34,637.851 1053.34,642.517 1003.5,646.5C 1007.53,634.748 1011.53,623.081 1015.5,611.5C 1030.15,609.987 1044.81,608.653 1059.5,607.5 Z"/></g>
<g><path style="opacity:1" fill="#4c7ac3" d="M 1159.5,633.5 C 1162.3,644.201 1163.97,655.201 1164.5,666.5C 1153.66,666.916 1142.99,668.249 1132.5,670.5C 1126.94,661.063 1121.11,651.729 1115,642.5C 1114.5,647.155 1114.33,651.821 1114.5,656.5C 1075.68,660.532 1036.85,664.532 998,668.5C 996.319,668.392 995.152,667.725 994.5,666.5C 996.989,659.528 999.989,652.861 1003.5,646.5C 1053.34,642.517 1103.34,637.851 1153.5,632.5C 1155.59,632.573 1157.59,632.906 1159.5,633.5 Z"/></g>
<g><path style="opacity:1" fill="#6f94cf" d="M 831.5,648.5 C 830.873,652.42 829.207,655.753 826.5,658.5C 827.659,654.849 829.326,651.515 831.5,648.5 Z"/></g>
<g><path style="opacity:1" fill="#4878c2" d="M 52.5,646.5 C 66.4772,659.579 81.9772,670.579 99,679.5C 101.132,693.214 105.632,706.048 112.5,718C 111.423,722.9 109.756,727.567 107.5,732C 104.033,734.786 100.366,735.12 96.5,733C 91.6667,729.5 87.5,725.333 84,720.5C 70.4856,697.135 59.9856,672.469 52.5,646.5 Z"/></g>
<g><path style="opacity:1" fill="#4e7bc3" d="M 960.5,672.5 C 951.157,673.034 941.823,673.701 932.5,674.5C 942.32,647.555 948.82,619.888 952,591.5C 957.737,618.201 960.57,645.201 960.5,672.5 Z"/></g>
<g><path style="opacity:1" fill="#4777c2" d="M 1114.5,656.5 C 1114.82,661.695 1114.49,666.695 1113.5,671.5C 1072.65,675.268 1031.82,679.268 991,683.5C 989.293,683.492 987.793,683.158 986.5,682.5C 988.659,676.849 991.326,671.516 994.5,666.5C 995.152,667.725 996.319,668.392 998,668.5C 1036.85,664.532 1075.68,660.532 1114.5,656.5 Z"/></g>
<g><path style="opacity:1" fill="#81a1d5" d="M 97.5,666.5 C 100.5,668.833 103.167,671.5 105.5,674.5C 101.833,672.833 99.1667,670.167 97.5,666.5 Z"/></g>
<g><path style="opacity:1" fill="#4272be" d="M 1164.5,666.5 C 1168.39,699.034 1169.23,731.7 1167,764.5C 1159.12,731.763 1147.62,700.429 1132.5,670.5C 1142.99,668.249 1153.66,666.916 1164.5,666.5 Z"/></g>
<g><path style="opacity:1" fill="#4172bf" d="M 1113.5,671.5 C 1112.14,687.948 1108.14,703.614 1101.5,718.5C 1101.65,717.448 1101.48,716.448 1101,715.5C 1052.1,721.207 1003.27,725.874 954.5,729.5C 966.416,714.663 977.083,698.996 986.5,682.5C 987.793,683.158 989.293,683.492 991,683.5C 1031.82,679.268 1072.65,675.268 1113.5,671.5 Z"/></g>
<g><path style="opacity:1" fill="#4272bf" d="M 960.5,672.5 C 960.166,691.844 957.499,710.844 952.5,729.5C 951.527,729.987 950.527,730.487 949.5,731C 932.139,732.636 914.806,734.469 897.5,736.5C 896.584,736.457 895.917,736.124 895.5,735.5C 910.624,716.929 922.958,696.595 932.5,674.5C 941.823,673.701 951.157,673.034 960.5,672.5 Z"/></g>
<g><path style="opacity:1" fill="#4777c2" d="M 479.5,700.5 C 480.067,711.363 478.901,722.03 476,732.5C 469.975,751.213 461.808,768.88 451.5,785.5C 416.788,785.309 382.454,788.809 348.5,796C 313.613,805.556 278.279,812.889 242.5,818C 192.845,820.993 156.845,800.326 134.5,756C 168.173,759.953 201.839,764.286 235.5,769C 252.975,772.233 269.642,769.899 285.5,762C 302.803,750.015 321.47,740.682 341.5,734C 362.482,728.591 383.815,725.924 405.5,726C 388.047,716.349 369.381,710.849 349.5,709.5C 351.493,707.837 353.826,706.67 356.5,706C 362.914,704.625 369.248,702.959 375.5,701C 410.1,695.273 444.767,695.106 479.5,700.5 Z"/></g>
<g><path style="opacity:1" fill="#7095cf" d="M 804.5,692.5 C 803.92,694.749 802.587,696.415 800.5,697.5C 801.08,695.251 802.413,693.585 804.5,692.5 Z"/></g>
<g><path style="opacity:1" fill="#7095cf" d="M 851.5,695.5 C 851.293,698.241 850.293,700.574 848.5,702.5C 848.707,699.759 849.707,697.426 851.5,695.5 Z"/></g>
<g><path style="opacity:1" fill="#82a2d5" d="M 479.5,700.5 C 483.167,700.5 486.833,700.5 490.5,700.5C 490.5,702.833 490.5,705.167 490.5,707.5C 489.883,716.655 488.383,725.655 486,734.5C 481.84,745.485 477.006,756.152 471.5,766.5C 467.218,772.867 462.552,779.034 457.5,785C 461.025,785.179 464.359,785.679 467.5,786.5C 462.073,786.782 456.74,786.449 451.5,785.5C 461.808,768.88 469.975,751.213 476,732.5C 478.901,722.03 480.067,711.363 479.5,700.5 Z"/></g>
<g><path style="opacity:1" fill="#7598d1" d="M 800.5,697.5 C 798.906,700.764 796.573,703.431 793.5,705.5C 795.094,702.236 797.427,699.569 800.5,697.5 Z"/></g>
<g><path style="opacity:1" fill="#86a5d6" d="M 790.5,708.5 C 787.833,713.167 784.167,716.833 779.5,719.5C 782.833,715.5 786.5,711.833 790.5,708.5 Z"/></g>
<g><path style="opacity:1" fill="#3d6cb7" d="M 1101.5,718.5 C 1097.16,731.5 1091.5,743.833 1084.5,755.5C 1085.47,751.392 1087.14,747.559 1089.5,744C 1064.03,745.38 1038.7,747.88 1013.5,751.5C 1013.3,749.05 1013.63,746.717 1014.5,744.5C 1015.01,741.824 1015.17,739.157 1015,736.5C 1014.16,739.202 1013.33,741.868 1012.5,744.5C 1012.07,747.785 1011.07,750.785 1009.5,753.5C 1008.49,752.235 1006.99,751.569 1005,751.5C 961.837,755.866 918.67,760.2 875.5,764.5C 873.631,764.493 871.964,764.16 870.5,763.5C 878.862,754.141 887.195,744.808 895.5,735.5C 895.917,736.124 896.584,736.457 897.5,736.5C 914.806,734.469 932.139,732.636 949.5,731C 950.527,730.487 951.527,729.987 952.5,729.5C 952.938,730.506 953.604,730.506 954.5,729.5C 1003.27,725.874 1052.1,721.207 1101,715.5C 1101.48,716.448 1101.65,717.448 1101.5,718.5 Z"/></g>
<g><path style="opacity:1" fill="#6d92ce" d="M 840.5,718.5 C 839.921,721.331 838.588,723.664 836.5,725.5C 837.079,722.669 838.412,720.336 840.5,718.5 Z"/></g>
<g><path style="opacity:1" fill="#779ad1" d="M 779.5,719.5 C 777.431,722.573 774.764,724.906 771.5,726.5C 773.569,723.427 776.236,721.094 779.5,719.5 Z"/></g>
<g><path style="opacity:1" fill="#15253e" d="M 1126.5,724.5 C 1139.35,759.935 1147.52,796.602 1151,834.5C 1153.15,860.683 1150.48,886.349 1143,911.5C 1141.91,892.313 1138.25,873.646 1132,855.5C 1128.63,847.254 1124.13,839.754 1118.5,833C 1117.5,832.333 1116.5,832.333 1115.5,833C 1101.1,886.319 1072.93,930.819 1031,966.5C 1043.74,934.674 1056.24,902.674 1068.5,870.5C 1065.74,870.744 1063.57,872.077 1062,874.5C 1020.08,933.083 969.584,982.917 910.5,1024C 907.107,1026.53 903.441,1028.2 899.5,1029C 909.648,1010.39 916.315,990.556 919.5,969.5C 918.127,969.343 916.793,969.51 915.5,970C 885.905,1002.96 852.239,1030.62 814.5,1053C 795.629,1064.76 776.296,1075.43 756.5,1085C 782.992,1062.85 803.825,1036.35 819,1005.5C 819.494,1003.87 819.66,1002.2 819.5,1000.5C 818.448,1000.35 817.448,1000.52 816.5,1001C 806.857,1010.98 796.857,1020.64 786.5,1030C 725.546,1077.29 664.88,1124.95 604.5,1173C 603.668,1173.69 603.002,1173.52 602.5,1172.5C 609.616,1151.94 619.116,1132.6 631,1114.5C 675.468,1069.36 725.635,1031.86 781.5,1002C 813.825,984.844 845.159,966.177 875.5,946C 903.276,924.151 929.443,900.318 954,874.5C 942.212,897.367 927.879,918.7 911,938.5C 904.667,944.167 898.333,949.833 892,955.5C 891.517,956.448 891.351,957.448 891.5,958.5C 914.981,954.506 937.314,947.006 958.5,936C 982.449,923.862 1004.12,908.528 1023.5,890C 1061.13,853.901 1091.3,812.401 1114,765.5C 1119.56,752.248 1123.73,738.582 1126.5,724.5 Z"/></g>
<g><path style="opacity:1" fill="#7296d0" d="M 771.5,726.5 C 770.415,728.587 768.749,729.92 766.5,730.5C 767.585,728.413 769.251,727.08 771.5,726.5 Z"/></g>
<g><path style="opacity:1" fill="#7599d1" d="M 766.5,730.5 C 765.415,732.587 763.749,733.92 761.5,734.5C 762.585,732.413 764.251,731.08 766.5,730.5 Z"/></g>
<g><path style="opacity:1" fill="#1c3153" d="M 1014.5,744.5 C 1013.83,744.5 1013.17,744.5 1012.5,744.5C 1013.33,741.868 1014.16,739.202 1015,736.5C 1015.17,739.157 1015.01,741.824 1014.5,744.5 Z"/></g>
<g><path style="opacity:1" fill="#3b69b1" d="M 1009.5,753.5 C 1007.9,760.03 1005.23,766.03 1001.5,771.5C 1000.85,770.275 999.681,769.608 998,769.5C 948.351,774.949 898.851,779.616 849.5,783.5C 856.474,776.861 863.474,770.194 870.5,763.5C 871.964,764.16 873.631,764.493 875.5,764.5C 918.67,760.2 961.837,755.866 1005,751.5C 1006.99,751.569 1008.49,752.235 1009.5,753.5 Z"/></g>
<g><path style="opacity:1" fill="#3a67ae" d="M 1084.5,755.5 C 1078.06,768.059 1070.4,779.726 1061.5,790.5C 1042.57,791.157 1023.57,792.824 1004.5,795.5C 1007.52,780.715 1010.52,766.048 1013.5,751.5C 1038.7,747.88 1064.03,745.38 1089.5,744C 1087.14,747.559 1085.47,751.392 1084.5,755.5 Z"/></g>
<g><path style="opacity:1" fill="#3966ac" d="M 1001.5,771.5 C 997.402,781.584 992.069,790.917 985.5,799.5C 986.087,798.233 986.087,797.233 985.5,796.5C 927.666,802.917 869.999,808.584 812.5,813.5C 824.809,803.53 837.142,793.53 849.5,783.5C 898.851,779.616 948.351,774.949 998,769.5C 999.681,769.608 1000.85,770.275 1001.5,771.5 Z"/></g>
<g><path style="opacity:1" fill="#8ca9d8" d="M 617.5,787.5 C 613.119,789.211 608.453,789.877 603.5,789.5C 607.98,788.479 612.647,787.813 617.5,787.5 Z"/></g>
<g><path style="opacity:1" fill="#3863a7" d="M 1061.5,790.5 C 1056.31,799.691 1049.98,808.024 1042.5,815.5C 1041.73,814.853 1040.73,814.52 1039.5,814.5C 1025.86,816.164 1012.19,817.497 998.5,818.5C 1000.37,810.688 1002.37,803.021 1004.5,795.5C 1023.57,792.824 1042.57,791.157 1061.5,790.5 Z"/></g>
<g><path style="opacity:1" fill="#3762a6" d="M 985.5,799.5 C 984.277,802.274 982.777,804.941 981,807.5C 975.969,814.022 970.803,820.356 965.5,826.5C 965.859,824.629 966.859,823.129 968.5,822C 903.683,828.516 839.017,834.683 774.5,840.5C 787.129,831.512 799.796,822.512 812.5,813.5C 869.999,808.584 927.666,802.917 985.5,796.5C 986.087,797.233 986.087,798.233 985.5,799.5 Z"/></g>
<g><path style="opacity:1" fill="#3760a0" d="M 1042.5,815.5 C 1033.27,827.736 1023.27,839.403 1012.5,850.5C 1000.25,861.244 988.42,872.577 977,884.5C 976.536,885.094 976.369,885.761 976.5,886.5C 971.535,890.963 966.702,895.63 962,900.5C 976.574,874.342 988.741,847.008 998.5,818.5C 1012.19,817.497 1025.86,816.164 1039.5,814.5C 1040.73,814.52 1041.73,814.853 1042.5,815.5 Z"/></g>
<g><path style="opacity:1" fill="#15253f" d="M 424.5,1134.5 C 444.378,1118.77 459.211,1099.1 469,1075.5C 478.091,1055.47 483.257,1034.47 484.5,1012.5C 485.817,990.424 482.817,969.091 475.5,948.5C 467.166,922.196 452.833,899.862 432.5,881.5C 421.43,871.123 409.097,862.457 395.5,855.5C 380.533,847.835 364.867,841.835 348.5,837.5C 347.594,833.851 346.26,830.351 344.5,827C 358.87,822.408 373.536,819.075 388.5,817C 405.352,814.3 420.352,818.3 433.5,829C 487.249,876.671 529.749,932.837 561,997.5C 576.667,1032.34 585.501,1068.84 587.5,1107C 587.54,1159.75 566.54,1201.59 524.5,1232.5C 559.201,1164.49 563.701,1094.16 538,1021.5C 537.55,1018.89 536.05,1017.56 533.5,1017.5C 531.197,1051.59 519.03,1081.59 497,1107.5C 471.245,1136.45 440.078,1156.95 403.5,1169C 411.921,1158.32 418.921,1146.82 424.5,1134.5 Z"/></g>
<g><path style="opacity:1" fill="#355fa0" d="M 965.5,826.5 C 957.88,836.455 949.546,845.788 940.5,854.5C 940.511,852.983 941.177,851.816 942.5,851C 877.169,856.933 811.836,863.266 746.5,870C 745.956,870.717 745.289,871.217 744.5,871.5C 749.387,862.288 755.054,853.621 761.5,845.5C 761.47,846.497 761.97,847.164 763,847.5C 766.762,845.036 770.595,842.703 774.5,840.5C 839.017,834.683 903.683,828.516 968.5,822C 966.859,823.129 965.859,824.629 965.5,826.5 Z"/></g>
<g><path style="opacity:1" fill="#365fa0" d="M 348.5,837.5 C 364.867,841.835 380.533,847.835 395.5,855.5C 387.845,867.458 379.679,879.125 371,890.5C 369.872,892.345 369.372,894.345 369.5,896.5C 363.519,876.562 356.519,856.895 348.5,837.5 Z"/></g>
<g><path style="opacity:1" fill="#335a99" d="M 940.5,854.5 C 926.543,867.792 911.877,880.126 896.5,891.5C 897.85,890.35 897.684,889.683 896,889.5C 838.567,895.793 781.067,901.46 723.5,906.5C 729.749,894.328 736.749,882.661 744.5,871.5C 745.289,871.217 745.956,870.717 746.5,870C 811.836,863.266 877.169,856.933 942.5,851C 941.177,851.816 940.511,852.983 940.5,854.5 Z"/></g>
<g><path style="opacity:1" fill="#335a99" d="M 395.5,855.5 C 409.097,862.457 421.43,871.123 432.5,881.5C 415.219,905.955 397.719,930.288 380,954.5C 379.004,957.909 378.171,961.242 377.5,964.5C 377.36,941.524 374.694,918.857 369.5,896.5C 369.372,894.345 369.872,892.345 371,890.5C 379.679,879.125 387.845,867.458 395.5,855.5 Z"/></g>
<g><path style="opacity:1" fill="#5681c6" d="M 1012.5,850.5 C 1000.83,862.833 988.833,874.833 976.5,886.5C 976.369,885.761 976.536,885.094 977,884.5C 988.42,872.577 1000.25,861.244 1012.5,850.5 Z"/></g>
<g><path style="opacity:1" fill="#315691" d="M 896.5,891.5 C 876.216,908.443 854.549,923.443 831.5,936.5C 832.058,935.21 833.058,934.377 834.5,934C 814.847,935.565 795.18,937.398 775.5,939.5C 776.833,937.5 778.5,935.833 780.5,934.5C 783.903,932.1 786.57,929.1 788.5,925.5C 792.943,920.793 797.276,915.959 801.5,911C 800.833,910.333 800.167,910.333 799.5,911C 786.836,921.988 773.836,932.488 760.5,942.5C 759.036,941.84 757.369,941.507 755.5,941.5C 737.167,943.333 718.833,945.167 700.5,947C 699.956,947.717 699.289,948.217 698.5,948.5C 706.333,934.162 714.666,920.162 723.5,906.5C 781.067,901.46 838.567,895.793 896,889.5C 897.684,889.683 897.85,890.35 896.5,891.5 Z"/></g>
<g><path style="opacity:1" fill="#315692" d="M 432.5,881.5 C 452.833,899.862 467.166,922.196 475.5,948.5C 464.53,962.984 453.697,977.651 443,992.5C 442.503,995.146 442.336,997.813 442.5,1000.5C 440.281,982.876 437.447,965.21 434,947.5C 428.413,967.009 419.413,984.675 407,1000.5C 404.963,1002.71 402.797,1004.71 400.5,1006.5C 397.167,1009.17 394.167,1012.17 391.5,1015.5C 383.372,1023.79 374.205,1030.79 364,1036.5C 363.333,1035.17 363.333,1033.83 364,1032.5C 372.908,1010.72 377.408,988.052 377.5,964.5C 378.171,961.242 379.004,957.909 380,954.5C 397.719,930.288 415.219,905.955 432.5,881.5 Z"/></g>
<g><path style="opacity:1" fill="#5882c7" d="M 788.5,925.5 C 786.57,929.1 783.903,932.1 780.5,934.5C 782.43,930.9 785.097,927.9 788.5,925.5 Z"/></g>
<g><path style="opacity:1" fill="#31548b" d="M 831.5,936.5 C 805.897,951.64 780.23,966.807 754.5,982C 740.772,990.897 727.772,1000.73 715.5,1011.5C 714.508,1011.67 713.842,1011.34 713.5,1010.5C 724.336,994.656 736.669,979.99 750.5,966.5C 753.903,964.1 756.57,961.1 758.5,957.5C 760.5,954.833 762.833,952.5 765.5,950.5C 768.903,948.1 771.57,945.1 773.5,941.5C 773.833,940.5 774.5,939.833 775.5,939.5C 795.18,937.398 814.847,935.565 834.5,934C 833.058,934.377 832.058,935.21 831.5,936.5 Z"/></g>
<g><path style="opacity:1" fill="#2f528a" d="M 760.5,942.5 C 750.488,951.844 740.154,960.844 729.5,969.5C 728.391,969.557 727.391,969.89 726.5,970.5C 712.5,971.833 698.5,973.167 684.5,974.5C 688.647,965.539 693.314,956.872 698.5,948.5C 699.289,948.217 699.956,947.717 700.5,947C 718.833,945.167 737.167,943.333 755.5,941.5C 757.369,941.507 759.036,941.84 760.5,942.5 Z"/></g>
<g><path style="opacity:1" fill="#5883c7" d="M 773.5,941.5 C 771.57,945.1 768.903,948.1 765.5,950.5C 767.43,946.9 770.097,943.9 773.5,941.5 Z"/></g>
<g><path style="opacity:1" fill="#2d5087" d="M 475.5,948.5 C 482.817,969.091 485.817,990.424 484.5,1012.5C 471.856,1031.08 458.69,1049.42 445,1067.5C 443.384,1069.71 442.217,1072.05 441.5,1074.5C 443.774,1049.87 444.108,1025.2 442.5,1000.5C 442.336,997.813 442.503,995.146 443,992.5C 453.697,977.651 464.53,962.984 475.5,948.5 Z"/></g>
<g><path style="opacity:1" fill="#5b85c8" d="M 758.5,957.5 C 756.57,961.1 753.903,964.1 750.5,966.5C 752.43,962.9 755.097,959.9 758.5,957.5 Z"/></g>
<g><path style="opacity:1" fill="#2c4d82" d="M 726.5,970.5 C 723.167,974.167 719.833,977.833 716.5,981.5C 715.833,982.833 714.833,983.833 713.5,984.5C 709.434,987.563 706.101,991.229 703.5,995.5C 702.833,996.833 701.833,997.833 700.5,998.5C 698.833,999.5 697.5,1000.83 696.5,1002.5C 687.527,1003.5 678.527,1004.16 669.5,1004.5C 673.992,994.182 678.992,984.182 684.5,974.5C 698.5,973.167 712.5,971.833 726.5,970.5 Z"/></g>
<g><path style="opacity:1" fill="#698fcd" d="M 729.5,969.5 C 725.773,974.23 721.44,978.23 716.5,981.5C 719.833,977.833 723.167,974.167 726.5,970.5C 727.391,969.89 728.391,969.557 729.5,969.5 Z"/></g>
<g><path style="opacity:1" fill="#648ccb" d="M 713.5,984.5 C 710.899,988.771 707.566,992.437 703.5,995.5C 706.101,991.229 709.434,987.563 713.5,984.5 Z"/></g>
<g><path style="opacity:1" fill="#668dcc" d="M 700.5,998.5 C 699.92,1000.75 698.587,1002.42 696.5,1003.5C 696.5,1003.17 696.5,1002.83 696.5,1002.5C 697.5,1000.83 698.833,999.5 700.5,998.5 Z"/></g>
<g><path style="opacity:1" fill="#2d4c7e" d="M 696.5,1002.5 C 696.5,1002.83 696.5,1003.17 696.5,1003.5C 696.167,1004.5 695.5,1005.17 694.5,1005.5C 692.413,1006.58 691.08,1008.25 690.5,1010.5C 677.779,1027.44 665.779,1045.11 654.5,1063.5C 653.212,1065.74 652.212,1068.07 651.5,1070.5C 648.742,1073.68 646.742,1077.34 645.5,1081.5C 642.045,1086.75 639.378,1092.41 637.5,1098.5C 636.566,1097.43 636.232,1096.1 636.5,1094.5C 643.517,1063.12 654.517,1033.12 669.5,1004.5C 678.527,1004.16 687.527,1003.5 696.5,1002.5 Z"/></g>
<g><path style="opacity:1" fill="#628aca" d="M 694.5,1005.5 C 693.92,1007.75 692.587,1009.42 690.5,1010.5C 691.08,1008.25 692.413,1006.58 694.5,1005.5 Z"/></g>
<g><path style="opacity:1" fill="#6a90cd" d="M 400.5,1006.5 C 398.5,1010.5 395.5,1013.5 391.5,1015.5C 394.167,1012.17 397.167,1009.17 400.5,1006.5 Z"/></g>
<g><path style="opacity:1" fill="#688ecc" d="M 713.5,1010.5 C 713.842,1011.34 714.508,1011.67 715.5,1011.5C 713.205,1014.3 710.705,1016.96 708,1019.5C 708.779,1015.96 710.613,1012.96 713.5,1010.5 Z"/></g>
<g><path style="opacity:1" fill="#2c4d81" d="M 484.5,1012.5 C 483.257,1034.47 478.091,1055.47 469,1075.5C 459.211,1099.1 444.378,1118.77 424.5,1134.5C 432.66,1115.19 438.327,1095.19 441.5,1074.5C 442.217,1072.05 443.384,1069.71 445,1067.5C 458.69,1049.42 471.856,1031.08 484.5,1012.5 Z"/></g>
<g><path style="opacity:1" fill="#6c92ce" d="M 651.5,1070.5 C 650.258,1074.66 648.258,1078.32 645.5,1081.5C 646.742,1077.34 648.742,1073.68 651.5,1070.5 Z"/></g>
<g><path style="opacity:1" fill="#6d90c8" d="M 636.5,1094.5 C 636.232,1096.1 636.566,1097.43 637.5,1098.5C 636.483,1102.05 634.983,1105.39 633,1108.5C 633.549,1103.64 634.715,1098.97 636.5,1094.5 Z"/></g>
</svg>
